<svg width="50" height="50" viewBox="0 0 50 50" fill="none" xmlns="http://www.w3.org/2000/svg">
<path d="M36.5 13.5L43 7M7 43L13.5 36.5M36.5 36.5L43 43M7 7L13.5 13.5" stroke="#00F78C" stroke-width="8"/>
<path fill-rule="evenodd" clip-rule="evenodd" d="M34.7249 48.038L28.3558 41.6689C27.2709 41.8861 26.1488 42 25 42C23.8516 42 22.7298 41.8861 21.6452 41.6691L15.2759 48.0384C18.265 49.3015 21.5509 50 25 50C28.4494 50 31.7356 49.3014 34.7249 48.038ZM1.96199 34.7249L8.33114 28.3558C8.11394 27.2709 8 26.1488 8 25C8 23.8512 8.11394 22.7291 8.33114 21.6442L1.962 15.2751C0.698586 18.2644 0 21.5506 0 25C0 28.4494 0.698584 31.7356 1.96199 34.7249ZM15.276 1.96163L21.6453 8.33094C22.7298 8.11387 23.8516 8 25 8C26.1488 8 27.2709 8.11394 28.3557 8.33114L34.7249 1.96199C31.7356 0.698584 28.4494 0 25 0C21.5509 0 18.265 0.698452 15.276 1.96163ZM48.0384 34.7241C49.3015 31.735 50 28.4491 50 25C50 21.5509 49.3015 18.265 48.0384 15.2759L41.6691 21.6452C41.8861 22.7298 42 23.8516 42 25C42 26.1484 41.8861 27.2702 41.6691 28.3547L48.0384 34.7241Z" fill="#00F78C"/>
</svg>
