<svg width="50" height="50" viewBox="0 0 50 50" fill="none" xmlns="http://www.w3.org/2000/svg">
<path d="M17.1823 49.9583C19.3044 49.9583 21.0247 48.238 21.0247 46.1159C21.0247 43.9938 19.3044 42.2734 17.1823 42.2734C15.0602 42.2734 13.3398 43.9938 13.3398 46.1159C13.3398 48.238 15.0602 49.9583 17.1823 49.9583Z" fill="#00F78C"/>
<path d="M32.6745 7.72544C34.7966 7.72544 36.5169 6.00511 36.5169 3.88298C36.5169 1.76085 34.7966 0.0405273 32.6745 0.0405273C30.5524 0.0405273 28.832 1.76085 28.832 3.88298C28.832 6.00511 30.5524 7.72544 32.6745 7.72544Z" fill="#00F78C"/>
<g opacity="0.3">
<path d="M3.84244 36.5404C5.96457 36.5404 7.68491 34.8201 7.68491 32.6979C7.68491 30.5758 5.96457 28.8555 3.84244 28.8555C1.72031 28.8555 0 30.5758 0 32.6979C0 34.8201 1.72031 36.5404 3.84244 36.5404Z" fill="#00F78C"/>
</g>
<g opacity="0.3">
<path d="M46.1589 21.1458C48.281 21.1458 50.0013 19.4255 50.0013 17.3034C50.0013 15.1813 48.281 13.4609 46.1589 13.4609C44.0367 13.4609 42.3164 15.1813 42.3164 17.3034C42.3164 19.4255 44.0367 21.1458 46.1589 21.1458Z" fill="#00F78C"/>
</g>
<g opacity="0.6">
<path d="M7.61981 46.2062C9.74194 46.2062 11.4622 44.4858 11.4622 42.3637C11.4622 40.2416 9.74194 38.5212 7.61981 38.5212C5.49768 38.5212 3.77734 40.2416 3.77734 42.3637C3.77734 44.4858 5.49768 46.2062 7.61981 46.2062Z" fill="#00F78C"/>
</g>
<g opacity="0.6">
<path d="M42.4401 11.6324C44.5622 11.6324 46.2826 9.9121 46.2826 7.78997C46.2826 5.66784 44.5622 3.94751 42.4401 3.94751C40.318 3.94751 38.5977 5.66784 38.5977 7.78997C38.5977 9.9121 40.318 11.6324 42.4401 11.6324Z" fill="#00F78C"/>
</g>
<path d="M7.33729 24.9369L0.0625 24.911C0.0744455 21.5623 0.741413 18.3131 2.04148 15.2551C3.29774 12.3006 5.08956 9.64871 7.36915 7.37111C9.64874 5.09351 12.3026 3.30169 15.2591 2.04742C18.3192 0.749344 21.5703 0.0843797 24.919 0.076416L24.9389 7.3512C20.2464 7.36514 15.8325 9.19876 12.5117 12.5176C9.19282 15.8325 7.35322 20.2443 7.33729 24.9369Z" fill="#00F78C"/>
<path d="M24.9915 49.9325C24.9357 49.9325 24.88 49.9325 24.8242 49.9305L25.0333 42.6577C25.0173 42.6577 24.9994 42.6577 24.9815 42.6577H24.9915C29.7079 42.6577 34.1417 40.8221 37.4765 37.4873C40.8112 34.1525 42.6468 29.7188 42.6468 25.0043V24.9864V25.0103L49.9196 24.8411C49.9216 24.8968 49.9216 24.9506 49.9216 25.0043C49.9216 28.369 49.2626 31.634 47.9606 34.71C46.7043 37.6785 44.9085 40.3443 42.619 42.6338C40.3314 44.9214 37.6656 46.7192 34.6952 47.9754C31.6212 49.2735 28.3561 49.9325 24.9915 49.9325Z" fill="#00F78C"/>
</svg>
