<svg width="45" height="50" viewBox="0 0 45 50" fill="none" xmlns="http://www.w3.org/2000/svg">
<path d="M27.4251 7.70183C29.5519 7.70183 31.2761 5.97772 31.2761 3.85091C31.2761 1.72411 29.5519 0 27.4251 0C25.2983 0 23.5742 1.72411 23.5742 3.85091C23.5742 5.97772 25.2983 7.70183 27.4251 7.70183Z" fill="#00F78C"/>
<g opacity="0.3">
<path d="M37.2103 21.151C39.3371 21.151 41.0612 19.4269 41.0612 17.3001C41.0612 15.1733 39.3371 13.4492 37.2103 13.4492C35.0835 13.4492 33.3594 15.1733 33.3594 17.3001C33.3594 19.4269 35.0835 21.151 37.2103 21.151Z" fill="#00F78C"/>
</g>
<g opacity="0.6">
<path d="M37.2103 11.6149C39.3371 11.6149 41.0612 9.8908 41.0612 7.764C41.0612 5.6372 39.3371 3.91309 37.2103 3.91309C35.0835 3.91309 33.3594 5.6372 33.3594 7.764C33.3594 9.8908 35.0835 11.6149 37.2103 11.6149Z" fill="#00F78C"/>
</g>
<path d="M13.8273 23.1971V13.3872C13.8273 10.1731 16.4425 7.55992 19.6546 7.55992V0.267334C16.151 0.267334 12.8591 1.63282 10.3816 4.11026C7.90418 6.5877 6.53869 9.88164 6.53869 13.3872V23.1971H0.328125L0.47785 49.9998H44.7065V23.1971H13.8273ZM37.4159 42.7112H7.72651L7.65863 30.4877H37.4159V42.7112Z" fill="#00F78C"/>
</svg>
